<svg width="796" height="137" viewBox="0 0 796 137" fill="none" xmlns="http://www.w3.org/2000/svg">
<g style="mix-blend-mode:multiply" opacity="0.33">
<path d="M45.091 63.1366C31.851 83.4094 9.777 89.3186 0.39502 89.7391V130.308H795.697V23.294C784.428 27.0139 757.839 43.7548 741.631 80.9589C721.371 127.464 690.838 97.9457 678.568 89.0346C666.298 80.1234 644.612 77.3387 631.2 78.7311C617.789 80.1234 596.673 83.1867 586.685 65.9213C576.698 48.656 566.616 37.4285 539.317 41.6941C515.063 42.5295 504.505 42.2511 493.091 33.8969C481.677 25.5427 447.72 6.04955 423.465 29.9983C399.21 53.947 374.1 64.8074 347.847 32.5045C321.595 0.201595 293.631 4.10023 282.788 14.6822C271.944 25.2642 264.804 57.5204 238.674 67.0012C216.468 71.3089 203.495 78.3912 180.061 102.123C149.814 132.755 131.552 105.743 117.57 72.8831C103.588 40.0233 61.6411 37.7955 45.091 63.1366Z" fill="url(#paint0_linear_8_736)"/>
</g>
<path d="M2.03375 89.3977C11.3835 88.978 33.3817 83.0804 46.5763 62.8472C63.0695 37.5556 104.872 39.7791 118.806 72.5747C132.74 105.37 150.94 132.329 181.083 101.757C211.226 71.1851 213.973 75.0732 239.948 67.2941C266.173 59.4398 266.775 33.0169 285.44 14.775C296.246 4.21371 322.131 0.0351997 348.293 32.275C374.455 64.5148 399.48 53.6755 423.651 29.7736C447.823 5.87172 481.663 25.3268 493.037 33.6646C504.412 42.0025 518.013 44.5903 539.105 41.4466C565.384 37.53 576.358 48.3949 586.311 65.6265C596.264 82.8581 617.307 79.8009 630.673 78.4112C644.038 77.0216 665.65 79.8009 677.878 88.6946C690.106 97.5883 720.534 127.049 740.724 80.6347C756.876 43.5033 783.375 26.7951 794.605 23.0825" stroke="#8A74F9" stroke-width="2.41955" stroke-linecap="round" stroke-linejoin="round"/>
<line x1="299.807" y1="13.8066" x2="299.807" y2="136.194" stroke="#8A74F9" stroke-width="1.61303" stroke-linecap="round"/>
<g filter="url(#filter0_d_8_736)">
<ellipse cx="300.525" cy="9.27505" rx="9.52468" ry="9.27493" fill="#8A74F9"/>
<path d="M309.243 9.27505C309.243 13.932 305.36 17.7435 300.525 17.7435C295.689 17.7435 291.807 13.932 291.807 9.27505C291.807 4.61814 295.689 0.806637 300.525 0.806637C305.36 0.806637 309.243 4.61814 309.243 9.27505Z" stroke="white" stroke-width="1.61303"/>
</g>
<defs>
<filter id="filter0_d_8_736" x="284.548" y="0.00012207" width="31.9536" height="31.4541" filterUnits="userSpaceOnUse" color-interpolation-filters="sRGB">
<feFlood flood-opacity="0" result="BackgroundImageFix"/>
<feColorMatrix in="SourceAlpha" type="matrix" values="0 0 0 0 0 0 0 0 0 0 0 0 0 0 0 0 0 0 127 0" result="hardAlpha"/>
<feOffset dy="6.45212"/>
<feGaussianBlur stdDeviation="3.22606"/>
<feComposite in2="hardAlpha" operator="out"/>
<feColorMatrix type="matrix" values="0 0 0 0 0.0509804 0 0 0 0 0.0392157 0 0 0 0 0.172549 0 0 0 0.08 0"/>
<feBlend mode="normal" in2="BackgroundImageFix" result="effect1_dropShadow_8_736"/>
<feBlend mode="normal" in="SourceGraphic" in2="effect1_dropShadow_8_736" result="shape"/>
</filter>
<linearGradient id="paint0_linear_8_736" x1="398.046" y1="7.07043" x2="398.046" y2="223.839" gradientUnits="userSpaceOnUse">
<stop stop-color="#8A74F9"/>
<stop offset="0.479167" stop-color="#8A74F9" stop-opacity="0.263733"/>
<stop offset="1" stop-color="#8A74F9" stop-opacity="0"/>
</linearGradient>
</defs>
</svg>
