<svg width="796" height="151" viewBox="0 0 796 151" fill="none" xmlns="http://www.w3.org/2000/svg">
<g style="mix-blend-mode:multiply" opacity="0.33">
<path d="M45.091 77.1366C31.851 97.4094 9.777 103.319 0.39502 103.739V144.308H795.697V37.294C784.428 41.0139 757.839 57.7548 741.631 94.9589C721.371 141.464 690.838 111.946 678.568 103.035C666.298 94.1234 644.612 91.3387 631.2 92.7311C617.789 94.1234 596.673 97.1867 586.685 79.9213C576.698 62.656 566.616 51.4285 539.317 55.6941C515.063 56.5295 504.505 56.2511 493.091 47.8969C481.677 39.5427 447.72 20.0495 423.465 43.9983C399.21 67.947 374.1 78.8074 347.847 46.5045C321.595 14.2016 293.631 18.1002 282.788 28.6822C271.944 39.2642 264.804 71.5204 238.674 81.0012C216.468 85.3089 203.495 92.3912 180.061 116.123C149.814 146.755 131.552 119.743 117.57 86.8831C103.588 54.0233 61.6411 51.7955 45.091 77.1366Z" fill="url(#paint0_linear_26_105)"/>
</g>
<path d="M2.03375 103.398C11.3835 102.978 33.3817 97.0804 46.5763 76.8472C63.0695 51.5556 104.872 53.7791 118.806 86.5747C132.74 119.37 150.94 146.329 181.083 115.757C211.226 85.1851 213.973 89.0732 239.948 81.2941C266.173 73.4398 266.775 47.0169 285.44 28.775C296.246 18.2137 322.131 14.0352 348.293 46.275C374.455 78.5148 399.48 67.6755 423.651 43.7736C447.823 19.8717 481.663 39.3268 493.037 47.6646C504.412 56.0025 518.013 58.5903 539.105 55.4466C565.384 51.53 576.358 62.3949 586.311 79.6265C596.264 96.8581 617.307 93.8009 630.673 92.4112C644.038 91.0216 665.65 93.8009 677.878 102.695C690.106 111.588 720.534 141.049 740.724 94.6347C756.876 57.5033 783.375 40.7951 794.605 37.0825" stroke="#8A74F9" stroke-width="2.41955" stroke-linecap="round" stroke-linejoin="round"/>
<line x1="299.807" y1="27.8066" x2="299.807" y2="150.194" stroke="#8A74F9" stroke-width="1.61303" stroke-linecap="round"/>
<g filter="url(#filter0_d_26_105)">
<ellipse cx="300.525" cy="23.275" rx="9.52468" ry="9.27493" fill="#8A74F9"/>
<path d="M309.243 23.275C309.243 27.932 305.36 31.7435 300.525 31.7435C295.689 31.7435 291.807 27.932 291.807 23.275C291.807 18.6181 295.689 14.8066 300.525 14.8066C305.36 14.8066 309.243 18.6181 309.243 23.275Z" stroke="white" stroke-width="1.61303"/>
</g>
<path fill-rule="evenodd" clip-rule="evenodd" d="M269.371 0.000122116C272.935 0.000122091 275.823 2.88883 275.823 6.45224L275.823 16.7644L282.79 20.895C283.844 21.5198 283.844 23.0451 282.79 23.6699L275.823 27.8006L275.823 34.6803C275.823 38.2437 272.935 41.1324 269.371 41.1324L199.452 41.1324C195.889 41.1324 193 38.2437 193 34.6803L193 6.45224C193 2.88884 195.889 0.00012198 199.452 0.000121868L269.371 0.000122116Z" fill="#1E1B39"/>
<path d="M241.346 27.5419V33.4142H240.457V28.4308H240.423L239.018 29.3483V28.4996L240.483 27.5419H241.346ZM243.172 33.4687C243.015 33.4687 242.88 33.4132 242.768 33.3024C242.655 33.1896 242.598 33.0539 242.598 32.8952C242.598 32.7385 242.655 32.6046 242.768 32.4938C242.88 32.381 243.015 32.3246 243.172 32.3246C243.329 32.3246 243.463 32.381 243.576 32.4938C243.689 32.6046 243.745 32.7385 243.745 32.8952C243.745 33.0003 243.719 33.0969 243.665 33.1848C243.613 33.2708 243.545 33.3396 243.459 33.3912C243.373 33.4429 243.277 33.4687 243.172 33.4687ZM246.714 33.4945C246.32 33.4945 245.968 33.4266 245.659 33.2909C245.351 33.1552 245.107 32.9669 244.927 32.726C244.75 32.4833 244.654 32.2023 244.641 31.883H245.541C245.552 32.057 245.611 32.208 245.716 32.3361C245.823 32.4622 245.963 32.5597 246.135 32.6285C246.307 32.6974 246.498 32.7318 246.708 32.7318C246.939 32.7318 247.144 32.6916 247.322 32.6113C247.501 32.5311 247.642 32.4192 247.743 32.2759C247.844 32.1306 247.895 31.9633 247.895 31.7741C247.895 31.5772 247.844 31.4042 247.743 31.2551C247.644 31.1041 247.497 30.9856 247.304 30.8996C247.113 30.8135 246.882 30.7705 246.611 30.7705H246.114V30.048H246.611C246.828 30.048 247.02 30.0088 247.184 29.9304C247.35 29.852 247.48 29.7431 247.574 29.6035C247.668 29.4621 247.714 29.2967 247.714 29.1075C247.714 28.9259 247.673 28.7682 247.591 28.6344C247.511 28.4987 247.396 28.3926 247.247 28.3161C247.1 28.2396 246.926 28.2014 246.725 28.2014C246.534 28.2014 246.355 28.2368 246.189 28.3075C246.025 28.3763 245.891 28.4757 245.788 28.6057C245.684 28.7338 245.629 28.8877 245.621 29.0673H244.764C244.774 28.75 244.867 28.4709 245.045 28.2301C245.225 27.9892 245.462 27.8009 245.756 27.6652C246.05 27.5295 246.377 27.4617 246.737 27.4617C247.113 27.4617 247.438 27.5352 247.712 27.6824C247.987 27.8277 248.199 28.0217 248.348 28.2645C248.499 28.5073 248.574 28.773 248.572 29.0616C248.574 29.3904 248.482 29.6695 248.296 29.8989C248.113 30.1282 247.868 30.2821 247.562 30.3605V30.4064C247.952 30.4656 248.254 30.6205 248.469 30.8709C248.685 31.1213 248.792 31.4319 248.79 31.8028C248.792 32.1258 248.702 32.4154 248.52 32.6716C248.34 32.9277 248.095 33.1294 247.783 33.2766C247.472 33.4218 247.115 33.4945 246.714 33.4945ZM252.939 32.3131V32.0035C252.939 31.7817 252.985 31.5791 253.076 31.3956C253.17 31.2102 253.306 31.062 253.483 30.9512C253.663 30.8384 253.88 30.782 254.134 30.782C254.394 30.782 254.612 30.8374 254.788 30.9483C254.964 31.0592 255.097 31.2073 255.187 31.3927C255.278 31.5782 255.324 31.7817 255.324 32.0035V32.3131C255.324 32.5349 255.278 32.7385 255.187 32.9239C255.095 33.1074 254.96 33.2555 254.782 33.3683C254.606 33.4792 254.39 33.5346 254.134 33.5346C253.876 33.5346 253.658 33.4792 253.481 33.3683C253.303 33.2555 253.168 33.1074 253.076 32.9239C252.985 32.7385 252.939 32.5349 252.939 32.3131ZM253.607 32.0035V32.3131C253.607 32.4775 253.646 32.6266 253.724 32.7604C253.803 32.8942 253.939 32.9611 254.134 32.9611C254.327 32.9611 254.462 32.8942 254.539 32.7604C254.615 32.6266 254.653 32.4775 254.653 32.3131V32.0035C254.653 31.8391 254.616 31.69 254.541 31.5562C254.469 31.4224 254.333 31.3555 254.134 31.3555C253.943 31.3555 253.807 31.4224 253.727 31.5562C253.647 31.69 253.607 31.8391 253.607 32.0035ZM249.985 28.9527V28.643C249.985 28.4212 250.031 28.2177 250.123 28.0322C250.217 27.8468 250.352 27.6987 250.53 27.5878C250.71 27.4769 250.927 27.4215 251.181 27.4215C251.441 27.4215 251.659 27.4769 251.835 27.5878C252.011 27.6987 252.143 27.8468 252.233 28.0322C252.323 28.2177 252.368 28.4212 252.368 28.643V28.9527C252.368 29.1744 252.322 29.378 252.23 29.5634C252.141 29.7469 252.007 29.895 251.829 30.0078C251.653 30.1187 251.437 30.1741 251.181 30.1741C250.921 30.1741 250.702 30.1187 250.524 30.0078C250.349 29.895 250.215 29.7469 250.123 29.5634C250.031 29.378 249.985 29.1744 249.985 28.9527ZM250.656 28.643V28.9527C250.656 29.117 250.695 29.2661 250.771 29.4C250.849 29.5338 250.986 29.6007 251.181 29.6007C251.372 29.6007 251.506 29.5338 251.582 29.4C251.661 29.2661 251.7 29.117 251.7 28.9527V28.643C251.7 28.4786 251.663 28.3295 251.588 28.1957C251.514 28.0619 251.378 27.995 251.181 27.995C250.99 27.995 250.854 28.0619 250.774 28.1957C250.695 28.3295 250.656 28.4786 250.656 28.643ZM250.258 33.4142L254.295 27.5419H254.98L250.943 33.4142H250.258Z" fill="#8A74F9"/>
<ellipse cx="261.749" cy="29.8381" rx="4.14588" ry="4.03717" fill="#8A74F9"/>
<path d="M262.68 29.4061L262.569 29.5144C261.973 30.0941 261.378 30.6738 260.783 31.2536C260.662 31.3709 260.52 31.3966 260.378 31.3326C260.241 31.2699 260.166 31.1551 260.186 31.0164C260.204 30.9161 260.252 30.8235 260.325 30.7505C260.901 30.1798 261.484 29.6163 262.065 29.0507L262.175 28.9435C262.139 28.9376 262.103 28.9336 262.067 28.9314C261.835 28.9304 261.601 28.9326 261.369 28.9297C261.184 28.9277 261.057 28.8041 261.055 28.6324C261.052 28.4452 261.168 28.3196 261.361 28.3184C261.896 28.315 262.432 28.3146 262.967 28.3172C263.183 28.3184 263.305 28.4323 263.309 28.6407C263.319 29.1579 263.325 29.6753 263.327 30.1926C263.327 30.3823 263.201 30.4938 263.007 30.4923C262.824 30.4906 262.704 30.3763 262.699 30.1921C262.693 29.9734 262.692 29.7546 262.689 29.5357C262.688 29.5012 262.684 29.4674 262.68 29.4061Z" fill="white"/>
<path d="M202.817 19.9482C202.817 19.4314 202.926 19.056 203.144 18.8218C203.362 18.5877 203.672 18.4544 204.076 18.4221C204.02 18.2929 203.979 18.1355 203.955 17.9498C203.939 17.756 203.931 17.5663 203.931 17.3805V16.7507C203.931 15.9191 204.145 15.2812 204.573 14.8371C205.009 14.385 205.63 14.1589 206.438 14.1589C207.237 14.1589 207.843 14.3809 208.255 14.825C208.674 15.261 208.884 15.8989 208.884 16.7386V17.4048C208.884 18.2445 208.683 18.8783 208.279 19.3063C207.883 19.7342 207.257 19.9482 206.402 19.9482C205.982 19.9482 205.614 19.8997 205.299 19.8028C204.993 19.706 204.738 19.5525 204.536 19.3426C204.294 19.3426 204.112 19.383 203.991 19.4637C203.878 19.5445 203.822 19.7261 203.822 20.0087V22.6975C203.822 22.7621 203.802 22.8146 203.761 22.8549C203.721 22.9034 203.668 22.9276 203.604 22.9276H203.035C202.97 22.9276 202.917 22.9034 202.877 22.8549C202.837 22.8146 202.817 22.7621 202.817 22.6975V19.9482ZM204.948 17.3321C204.948 17.9215 205.053 18.3454 205.263 18.6038C205.481 18.8622 205.861 18.9914 206.402 18.9914C206.934 18.9914 207.31 18.8662 207.528 18.6159C207.754 18.3575 207.867 17.9296 207.867 17.3321V16.8234C207.867 16.2663 207.758 15.8424 207.54 15.5517C207.33 15.261 206.959 15.1157 206.426 15.1157C205.893 15.1157 205.513 15.261 205.287 15.5517C205.061 15.8424 204.948 16.2663 204.948 16.8234V17.3321ZM210.752 10.9978C210.752 10.9332 210.773 10.8767 210.813 10.8282C210.861 10.7798 210.918 10.7555 210.983 10.7555H211.576C211.641 10.7555 211.693 10.7798 211.733 10.8282C211.774 10.8767 211.794 10.9332 211.794 10.9978V19.6212C211.794 19.6858 211.774 19.7423 211.733 19.7907C211.693 19.8392 211.641 19.8634 211.576 19.8634H210.983C210.918 19.8634 210.861 19.8392 210.813 19.7907C210.773 19.7423 210.752 19.6858 210.752 19.6212V10.9978ZM213.437 19.0398C213.437 18.9752 213.461 18.9227 213.509 18.8824C213.558 18.842 213.614 18.8218 213.679 18.8218H216.985L216.973 17.3321C216.957 16.6216 216.779 16.0927 216.44 15.7455C216.101 15.3983 215.548 15.2247 214.781 15.2247C214.692 15.2247 214.563 15.2287 214.393 15.2368C214.232 15.2368 214.091 15.2449 213.97 15.261C213.808 15.2772 213.727 15.2207 213.727 15.0915V14.5949C213.727 14.5303 213.743 14.4778 213.776 14.4374C213.816 14.3971 213.881 14.3729 213.97 14.3648C214.179 14.3325 214.377 14.3123 214.563 14.3042C214.757 14.2961 214.898 14.2921 214.987 14.2921C215.528 14.2921 215.988 14.3648 216.368 14.5101C216.747 14.6555 217.054 14.8613 217.288 15.1278C217.522 15.3943 217.692 15.7092 217.797 16.0725C217.91 16.4358 217.974 16.8355 217.991 17.2715L218.003 18.8218H218.802V19.8634H213.679C213.614 19.8634 213.558 19.8473 213.509 19.815C213.461 19.7746 213.437 19.7221 213.437 19.6575V19.0398ZM218.732 19.8634C218.603 19.8634 218.502 19.8473 218.43 19.815C218.357 19.7746 218.321 19.7342 218.321 19.6938V18.9793C218.321 18.9308 218.361 18.8945 218.442 18.8703C218.523 18.838 218.619 18.8218 218.732 18.8218H224.352L223.916 17.7802L223.638 17.1383C223.371 16.5166 223.016 16.0564 222.572 15.7576C222.136 15.4589 221.538 15.3095 220.779 15.3095C220.715 15.3095 220.59 15.3175 220.404 15.3337C220.218 15.3418 220.057 15.3539 219.919 15.37C219.742 15.3862 219.653 15.3297 219.653 15.2005V14.7039C219.653 14.6393 219.669 14.5909 219.701 14.5586C219.734 14.5182 219.794 14.4899 219.883 14.4738C220.053 14.4334 220.238 14.4051 220.44 14.389C220.65 14.3729 220.848 14.3648 221.034 14.3648C221.437 14.3648 221.817 14.4051 222.172 14.4859C222.527 14.5586 222.862 14.6999 223.177 14.9098C223.492 15.1117 223.783 15.3943 224.049 15.7576C224.316 16.1129 224.566 16.5731 224.8 17.1383L224.934 17.4532L225.418 18.6765C225.458 18.7411 225.491 18.7814 225.515 18.7976C225.539 18.8137 225.584 18.8218 225.648 18.8218H225.733V19.8634H218.732ZM221.155 12.1484C221.155 12.0676 221.183 12.003 221.24 11.9546C221.296 11.9061 221.361 11.8819 221.433 11.8819H221.966C222.039 11.8819 222.099 11.9061 222.148 11.9546C222.204 12.003 222.233 12.0676 222.233 12.1484V12.8024C222.233 12.8751 222.204 12.9356 222.148 12.9841C222.099 13.0325 222.035 13.0567 221.954 13.0567H221.433C221.353 13.0567 221.284 13.0325 221.227 12.9841C221.179 12.9356 221.155 12.8751 221.155 12.8024V12.1484ZM225.252 18.9793C225.252 18.9308 225.292 18.8945 225.373 18.8703C225.454 18.838 225.55 18.8218 225.663 18.8218H226.208C226.289 18.8218 226.378 18.8178 226.475 18.8097C226.572 18.8016 226.665 18.7855 226.753 18.7613C226.842 18.729 226.915 18.6845 226.972 18.628C227.036 18.5634 227.068 18.4787 227.068 18.3737V15.2005C227.068 15.1359 227.089 15.0834 227.129 15.043C227.177 14.9946 227.234 14.9704 227.299 14.9704H227.856C227.92 14.9704 227.973 14.9946 228.013 15.043C228.062 15.0834 228.086 15.1359 228.086 15.2005V18.5311C228.11 18.5957 228.158 18.6482 228.231 18.6886C228.312 18.7209 228.397 18.7491 228.485 18.7734C228.582 18.7895 228.679 18.8016 228.776 18.8097C228.873 18.8178 228.958 18.8218 229.03 18.8218H229.2V19.8634H229.055C228.804 19.8634 228.534 19.8392 228.243 19.7907C227.961 19.7342 227.726 19.6252 227.541 19.4637C227.339 19.6252 227.097 19.7342 226.814 19.7907C226.54 19.8392 226.289 19.8634 226.063 19.8634H225.663C225.55 19.8634 225.454 19.8513 225.373 19.8271C225.292 19.7948 225.252 19.7504 225.252 19.6938V18.9793ZM226.039 12.4875C226.039 12.4067 226.063 12.3422 226.112 12.2937C226.168 12.2453 226.237 12.221 226.317 12.221H226.79C226.871 12.221 226.935 12.2453 226.984 12.2937C227.04 12.3422 227.068 12.4067 227.068 12.4875V13.1415C227.068 13.2142 227.04 13.2747 226.984 13.3232C226.927 13.3716 226.862 13.3959 226.79 13.3959H226.317C226.237 13.3959 226.168 13.3716 226.112 13.3232C226.063 13.2747 226.039 13.2142 226.039 13.1415V12.4875ZM228.013 12.4875C228.013 12.4067 228.041 12.3422 228.098 12.2937C228.162 12.2453 228.231 12.221 228.304 12.221H228.776C228.849 12.221 228.913 12.2453 228.97 12.2937C229.026 12.3422 229.055 12.4067 229.055 12.4875V13.1415C229.055 13.2142 229.026 13.2747 228.97 13.3232C228.913 13.3716 228.849 13.3959 228.776 13.3959H228.304C228.231 13.3959 228.162 13.3716 228.098 13.3232C228.041 13.2747 228.013 13.2142 228.013 13.1415V12.4875ZM228.717 18.9793C228.717 18.9308 228.758 18.8945 228.838 18.8703C228.919 18.838 229.016 18.8218 229.129 18.8218H229.589C229.67 18.8218 229.759 18.8178 229.856 18.8097C229.953 18.8016 230.041 18.7855 230.122 18.7613C230.211 18.729 230.284 18.6845 230.34 18.628C230.405 18.5634 230.437 18.4787 230.437 18.3737V15.7576C230.437 15.693 230.457 15.6365 230.498 15.588C230.538 15.5396 230.59 15.5154 230.655 15.5154H231.212C231.277 15.5154 231.329 15.5396 231.37 15.588C231.41 15.6365 231.43 15.693 231.43 15.7576V18.5554C231.454 18.62 231.503 18.6724 231.575 18.7128C231.656 18.7451 231.741 18.7734 231.83 18.7976C231.927 18.8137 232.024 18.8259 232.121 18.8339C232.217 18.842 232.302 18.846 232.375 18.846H232.641C232.714 18.846 232.795 18.842 232.884 18.8339C232.98 18.8178 233.065 18.7976 233.138 18.7734C233.219 18.7411 233.287 18.6967 233.344 18.6401C233.4 18.5836 233.429 18.5069 233.429 18.41V15.3458C233.429 15.2812 233.449 15.2287 233.489 15.1884C233.538 15.1399 233.594 15.1157 233.659 15.1157H234.216C234.28 15.1157 234.333 15.1399 234.373 15.1884C234.414 15.2287 234.434 15.2812 234.434 15.3458V18.5554C234.458 18.62 234.506 18.6724 234.579 18.7128C234.652 18.7451 234.737 18.7734 234.833 18.7976C234.938 18.8137 235.047 18.8259 235.16 18.8339C235.274 18.842 235.383 18.846 235.488 18.846H235.875C235.996 18.846 236.089 18.846 236.154 18.846C236.226 18.838 236.283 18.8218 236.323 18.7976C236.364 18.7653 236.388 18.7209 236.396 18.6644C236.412 18.6078 236.42 18.5231 236.42 18.41C236.42 17.8448 236.42 17.2756 236.42 16.7023C236.42 16.1209 236.412 15.5154 236.396 14.8856C236.396 14.821 236.416 14.7685 236.456 14.7281C236.497 14.6797 236.549 14.6555 236.614 14.6555H237.183C237.256 14.6555 237.312 14.6797 237.353 14.7281C237.393 14.7685 237.413 14.821 237.413 14.8856C237.421 15.1601 237.425 15.4064 237.425 15.6244C237.433 15.8424 237.437 16.0523 237.437 16.2542C237.437 16.456 237.437 16.6619 237.437 16.8719C237.437 17.0737 237.437 17.2958 237.437 17.538V17.974C237.437 18.0709 237.437 18.1799 237.437 18.301C237.437 18.4221 237.433 18.5473 237.425 18.6765C237.425 18.7976 237.421 18.9187 237.413 19.0398C237.405 19.1609 237.397 19.2699 237.389 19.3668C237.373 19.4556 237.345 19.5283 237.304 19.5848C237.272 19.6414 237.207 19.6898 237.11 19.7302C236.981 19.7705 236.8 19.8028 236.565 19.8271C236.339 19.8432 236.097 19.8513 235.839 19.8513H235.645C235.354 19.8513 235.064 19.8271 234.773 19.7786C234.482 19.7302 234.232 19.6252 234.022 19.4637C233.861 19.601 233.655 19.7019 233.404 19.7665C233.162 19.8311 232.9 19.8634 232.617 19.8634H232.411C232.161 19.8634 231.907 19.8392 231.648 19.7907C231.39 19.7342 231.168 19.6252 230.982 19.4637C230.788 19.6252 230.554 19.7342 230.28 19.7907C230.005 19.8392 229.743 19.8634 229.492 19.8634H229.129C229.016 19.8634 228.919 19.8513 228.838 19.8271C228.758 19.7948 228.717 19.7504 228.717 19.6938V18.9793ZM239.494 10.9978C239.494 10.9332 239.514 10.8767 239.554 10.8282C239.603 10.7798 239.659 10.7555 239.724 10.7555H240.317C240.382 10.7555 240.434 10.7798 240.475 10.8282C240.515 10.8767 240.535 10.9332 240.535 10.9978V19.6212C240.535 19.6858 240.515 19.7423 240.475 19.7907C240.434 19.8392 240.382 19.8634 240.317 19.8634H239.724C239.659 19.8634 239.603 19.8392 239.554 19.7907C239.514 19.7423 239.494 19.6858 239.494 19.6212V10.9978ZM239.094 22.8065C238.949 22.8065 238.876 22.7581 238.876 22.6612V22.4553C238.876 22.3745 238.949 22.3342 239.094 22.3342H239.3C239.227 22.2453 239.175 22.1363 239.142 22.0071C239.11 21.886 239.094 21.7649 239.094 21.6438C239.094 21.3047 239.191 21.0544 239.385 20.8929C239.586 20.7395 239.869 20.6628 240.232 20.6628C240.297 20.6628 240.37 20.6668 240.45 20.6749C240.531 20.6829 240.612 20.6951 240.693 20.7112C240.781 20.7435 240.826 20.792 240.826 20.8565V21.0261C240.826 21.1149 240.773 21.1593 240.668 21.1593C240.652 21.1593 240.596 21.1553 240.499 21.1472C240.402 21.1472 240.333 21.1472 240.293 21.1472C239.865 21.1472 239.651 21.3289 239.651 21.6922C239.651 21.8618 239.679 21.9991 239.736 22.104C239.792 22.2171 239.853 22.2897 239.917 22.322H240.729C240.866 22.322 240.935 22.3705 240.935 22.4674V22.6612C240.935 22.7258 240.915 22.7661 240.874 22.7823C240.842 22.7984 240.794 22.8065 240.729 22.8065H239.094ZM245.939 19.8634V19.0892L248.846 15.9065C249.187 15.5338 249.468 15.2098 249.689 14.9345C249.91 14.6564 250.073 14.3954 250.18 14.1517C250.289 13.9051 250.343 13.6471 250.343 13.3776C250.343 13.0679 250.268 12.7998 250.119 12.5733C249.973 12.3468 249.772 12.1718 249.517 12.0486C249.262 11.9253 248.975 11.8636 248.657 11.8636C248.319 11.8636 248.023 11.9339 247.771 12.0744C247.522 12.212 247.328 12.4055 247.19 12.655C247.056 12.9044 246.988 13.1969 246.988 13.5324H245.973C245.973 13.0163 246.092 12.5632 246.33 12.1733C246.568 11.7833 246.892 11.4794 247.302 11.2615C247.715 11.0436 248.178 10.9346 248.691 10.9346C249.208 10.9346 249.665 11.0436 250.063 11.2615C250.462 11.4794 250.775 11.7733 251.001 12.1432C251.228 12.5131 251.341 12.9245 251.341 13.3776C251.341 13.7016 251.282 14.0184 251.164 14.3281C251.05 14.6349 250.849 14.9775 250.562 15.356C250.278 15.7316 249.884 16.1904 249.38 16.7323L247.401 18.8484V18.9172H251.496V19.8634H245.939ZM256.025 19.9838C255.52 19.9838 255.065 19.8835 254.661 19.6828C254.257 19.4821 253.933 19.2068 253.689 18.857C253.445 18.5072 253.312 18.1086 253.289 17.6613H254.321C254.362 18.0599 254.542 18.3896 254.863 18.6505C255.187 18.9086 255.574 19.0376 256.025 19.0376C256.386 19.0376 256.707 18.953 256.988 18.7839C257.272 18.6147 257.494 18.3824 257.655 18.0871C257.818 17.7889 257.9 17.452 257.9 17.0764C257.9 16.6922 257.815 16.3495 257.646 16.0484C257.48 15.7445 257.25 15.5051 256.958 15.3302C256.665 15.1553 256.331 15.0664 255.956 15.0635C255.686 15.0607 255.41 15.1022 255.126 15.1883C254.842 15.2714 254.608 15.3789 254.425 15.5108L253.427 15.3904L253.96 11.055H258.536V12.0012H254.855L254.545 14.599H254.597C254.777 14.4557 255.004 14.3367 255.276 14.242C255.549 14.1474 255.832 14.1001 256.128 14.1001C256.667 14.1001 257.147 14.2291 257.569 14.4872C257.993 14.7424 258.326 15.0922 258.566 15.5366C258.81 15.9811 258.932 16.4886 258.932 17.0592C258.932 17.6212 258.806 18.1229 258.554 18.5645C258.304 19.0032 257.96 19.3502 257.521 19.6053C257.083 19.8577 256.584 19.9838 256.025 19.9838ZM263.514 19.9838C262.866 19.9838 262.314 19.8075 261.858 19.4548C261.402 19.0993 261.053 18.5846 260.813 17.9108C260.572 17.2341 260.451 16.4169 260.451 15.4592C260.451 14.5073 260.572 13.6944 260.813 13.0206C261.056 12.3439 261.406 11.8278 261.862 11.4722C262.321 11.1138 262.871 10.9346 263.514 10.9346C264.156 10.9346 264.705 11.1138 265.161 11.4722C265.62 11.8278 265.969 12.3439 266.21 13.0206C266.454 13.6944 266.576 14.5073 266.576 15.4592C266.576 16.4169 266.455 17.2341 266.215 17.9108C265.974 18.5846 265.625 19.0993 265.17 19.4548C264.714 19.8075 264.162 19.9838 263.514 19.9838ZM263.514 19.0376C264.156 19.0376 264.655 18.7279 265.01 18.1086C265.366 17.4893 265.544 16.6061 265.544 15.4592C265.544 14.6965 265.462 14.0471 265.299 13.5109C265.138 12.9747 264.906 12.5661 264.602 12.2851C264.301 12.0041 263.938 11.8636 263.514 11.8636C262.877 11.8636 262.38 12.1776 262.021 12.8055C261.663 13.4306 261.484 14.3152 261.484 15.4592C261.484 16.2219 261.564 16.8699 261.724 17.4033C261.885 17.9366 262.116 18.3423 262.417 18.6204C262.721 18.8986 263.086 19.0376 263.514 19.0376Z" fill="#E5E5EF"/>
<defs>
<filter id="filter0_d_26_105" x="284.548" y="14.0001" width="31.9536" height="31.4541" filterUnits="userSpaceOnUse" color-interpolation-filters="sRGB">
<feFlood flood-opacity="0" result="BackgroundImageFix"/>
<feColorMatrix in="SourceAlpha" type="matrix" values="0 0 0 0 0 0 0 0 0 0 0 0 0 0 0 0 0 0 127 0" result="hardAlpha"/>
<feOffset dy="6.45212"/>
<feGaussianBlur stdDeviation="3.22606"/>
<feComposite in2="hardAlpha" operator="out"/>
<feColorMatrix type="matrix" values="0 0 0 0 0.0509804 0 0 0 0 0.0392157 0 0 0 0 0.172549 0 0 0 0.08 0"/>
<feBlend mode="normal" in2="BackgroundImageFix" result="effect1_dropShadow_26_105"/>
<feBlend mode="normal" in="SourceGraphic" in2="effect1_dropShadow_26_105" result="shape"/>
</filter>
<linearGradient id="paint0_linear_26_105" x1="398.046" y1="21.0704" x2="398.046" y2="237.839" gradientUnits="userSpaceOnUse">
<stop stop-color="#8A74F9"/>
<stop offset="0.479167" stop-color="#8A74F9" stop-opacity="0.263733"/>
<stop offset="1" stop-color="#8A74F9" stop-opacity="0"/>
</linearGradient>
</defs>
</svg>
