<svg width="91" height="42" viewBox="0 0 91 42" fill="none" xmlns="http://www.w3.org/2000/svg">
<path fill-rule="evenodd" clip-rule="evenodd" d="M76.3712 0.000122116C79.9346 0.000122091 82.8233 2.88883 82.8233 6.45224L82.8233 16.7644L89.7901 20.895C90.844 21.5198 90.844 23.0451 89.7901 23.6699L82.8233 27.8006L82.8233 34.6803C82.8233 38.2437 79.9346 41.1324 76.3712 41.1324L6.45212 41.1324C2.88872 41.1324 2.05516e-06 38.2437 2.11812e-06 34.6803L2.61682e-06 6.45224C2.67977e-06 2.88884 2.88873 0.00012198 6.45214 0.000121868L76.3712 0.000122116Z" fill="#1E1B39"/>
<path d="M48.3461 27.5419V33.4142H47.4573V28.4308H47.4229L46.0179 29.3483V28.4996L47.4831 27.5419H48.3461ZM50.1719 33.4687C50.0151 33.4687 49.8804 33.4132 49.7676 33.3024C49.6548 33.1896 49.5984 33.0539 49.5984 32.8952C49.5984 32.7385 49.6548 32.6046 49.7676 32.4938C49.8804 32.381 50.0151 32.3246 50.1719 32.3246C50.3286 32.3246 50.4634 32.381 50.5762 32.4938C50.689 32.6046 50.7454 32.7385 50.7454 32.8952C50.7454 33.0003 50.7186 33.0969 50.6651 33.1848C50.6135 33.2708 50.5446 33.3396 50.4586 33.3912C50.3726 33.4429 50.277 33.4687 50.1719 33.4687ZM53.7137 33.4945C53.32 33.4945 52.9682 33.4266 52.6586 33.2909C52.3508 33.1552 52.1071 32.9669 51.9274 32.726C51.7496 32.4833 51.6541 32.2023 51.6407 31.883H52.541C52.5525 32.057 52.6108 32.208 52.7159 32.3361C52.823 32.4622 52.9625 32.5597 53.1345 32.6285C53.3066 32.6974 53.4977 32.7318 53.708 32.7318C53.9393 32.7318 54.1438 32.6916 54.3216 32.6113C54.5013 32.5311 54.6418 32.4192 54.7431 32.2759C54.8444 32.1306 54.8951 31.9633 54.8951 31.7741C54.8951 31.5772 54.8444 31.4042 54.7431 31.2551C54.6437 31.1041 54.4975 30.9856 54.3044 30.8996C54.1132 30.8135 53.882 30.7705 53.6105 30.7705H53.1145V30.048H53.6105C53.8284 30.048 54.0196 30.0088 54.184 29.9304C54.3503 29.852 54.4803 29.7431 54.5739 29.6035C54.6676 29.4621 54.7144 29.2967 54.7144 29.1075C54.7144 28.9259 54.6733 28.7682 54.5911 28.6344C54.5108 28.4987 54.3962 28.3926 54.2471 28.3161C54.0999 28.2396 53.9259 28.2014 53.7252 28.2014C53.5341 28.2014 53.3553 28.2368 53.189 28.3075C53.0246 28.3763 52.8908 28.4757 52.7876 28.6057C52.6844 28.7338 52.6289 28.8877 52.6213 29.0673H51.764C51.7735 28.75 51.8672 28.4709 52.045 28.2301C52.2246 27.9892 52.4617 27.8009 52.7561 27.6652C53.0504 27.5295 53.3773 27.4617 53.7367 27.4617C54.1132 27.4617 54.4382 27.5352 54.7116 27.6824C54.9868 27.8277 55.199 28.0217 55.3481 28.2645C55.4991 28.5073 55.5737 28.773 55.5718 29.0616C55.5737 29.3904 55.4819 29.6695 55.2965 29.8989C55.113 30.1282 54.8683 30.2821 54.5625 30.3605V30.4064C54.9524 30.4656 55.2544 30.6205 55.4685 30.8709C55.6845 31.1213 55.7916 31.4319 55.7897 31.8028C55.7916 32.1258 55.7017 32.4154 55.5201 32.6716C55.3405 32.9277 55.0948 33.1294 54.7832 33.2766C54.4717 33.4218 54.1152 33.4945 53.7137 33.4945ZM59.9387 32.3131V32.0035C59.9387 31.7817 59.9845 31.5791 60.0763 31.3956C60.17 31.2102 60.3057 31.062 60.4835 30.9512C60.6631 30.8384 60.8801 30.782 61.1343 30.782C61.3943 30.782 61.6122 30.8374 61.7881 30.9483C61.9639 31.0592 62.0968 31.2073 62.1866 31.3927C62.2784 31.5782 62.3243 31.7817 62.3243 32.0035V32.3131C62.3243 32.5349 62.2784 32.7385 62.1866 32.9239C62.0949 33.1074 61.9601 33.2555 61.7823 33.3683C61.6065 33.4792 61.3905 33.5346 61.1343 33.5346C60.8763 33.5346 60.6584 33.4792 60.4806 33.3683C60.3028 33.2555 60.168 33.1074 60.0763 32.9239C59.9845 32.7385 59.9387 32.5349 59.9387 32.3131ZM60.6067 32.0035V32.3131C60.6067 32.4775 60.6459 32.6266 60.7243 32.7604C60.8027 32.8942 60.9394 32.9611 61.1343 32.9611C61.3274 32.9611 61.4622 32.8942 61.5386 32.7604C61.6151 32.6266 61.6533 32.4775 61.6533 32.3131V32.0035C61.6533 31.8391 61.616 31.69 61.5415 31.5562C61.4688 31.4224 61.3331 31.3555 61.1343 31.3555C60.9432 31.3555 60.8075 31.4224 60.7272 31.5562C60.6469 31.69 60.6067 31.8391 60.6067 32.0035ZM56.9853 28.9527V28.643C56.9853 28.4212 57.0312 28.2177 57.123 28.0322C57.2166 27.8468 57.3523 27.6987 57.5301 27.5878C57.7098 27.4769 57.9268 27.4215 58.181 27.4215C58.441 27.4215 58.6589 27.4769 58.8347 27.5878C59.0106 27.6987 59.1435 27.8468 59.2333 28.0322C59.3231 28.2177 59.3681 28.4212 59.3681 28.643V28.9527C59.3681 29.1744 59.3222 29.378 59.2304 29.5634C59.1406 29.7469 59.0068 29.895 58.829 30.0078C58.6532 30.1187 58.4371 30.1741 58.181 30.1741C57.921 30.1741 57.7022 30.1187 57.5244 30.0078C57.3485 29.895 57.2147 29.7469 57.123 29.5634C57.0312 29.378 56.9853 29.1744 56.9853 28.9527ZM57.6563 28.643V28.9527C57.6563 29.117 57.6945 29.2661 57.771 29.4C57.8493 29.5338 57.986 29.6007 58.181 29.6007C58.3722 29.6007 58.506 29.5338 58.5824 29.4C58.6608 29.2661 58.7 29.117 58.7 28.9527V28.643C58.7 28.4786 58.6627 28.3295 58.5882 28.1957C58.5136 28.0619 58.3779 27.995 58.181 27.995C57.9898 27.995 57.8541 28.0619 57.7738 28.1957C57.6955 28.3295 57.6563 28.4786 57.6563 28.643ZM57.2577 33.4142L61.2949 27.5419H61.9802L57.943 33.4142H57.2577Z" fill="#8A74F9"/>
<ellipse cx="68.7488" cy="29.8381" rx="4.14588" ry="4.03717" fill="#8A74F9"/>
<path d="M69.6799 29.4061L69.5686 29.5144C68.9734 30.0941 68.378 30.6738 67.7826 31.2536C67.6622 31.3709 67.5198 31.3966 67.3777 31.3326C67.2408 31.2699 67.1656 31.1551 67.1856 31.0164C67.2035 30.9161 67.2521 30.8235 67.3249 30.7505C67.9006 30.1798 68.4838 29.6163 69.0646 29.0507L69.1747 28.9435C69.1392 28.9376 69.1034 28.9336 69.0674 28.9314C68.8345 28.9304 68.6014 28.9326 68.3687 28.9297C68.1844 28.9277 68.0572 28.8041 68.0547 28.6324C68.0523 28.4452 68.1677 28.3196 68.3605 28.3184C68.8962 28.315 69.4316 28.3146 69.9668 28.3172C70.1832 28.3184 70.305 28.4323 70.309 28.6407C70.3189 29.1579 70.3247 29.6753 70.3265 30.1926C70.3272 30.3823 70.2005 30.4938 70.007 30.4923C69.8245 30.4906 69.7044 30.3763 69.6988 30.1921C69.6929 29.9734 69.6924 29.7546 69.6891 29.5357C69.6884 29.5012 69.6839 29.4674 69.6799 29.4061Z" fill="white"/>
<path d="M9.81651 19.9482C9.81651 19.4314 9.92551 19.056 10.1435 18.8218C10.3615 18.5877 10.6724 18.4544 11.0761 18.4221C11.0196 18.2929 10.9792 18.1355 10.955 17.9498C10.9388 17.756 10.9308 17.5663 10.9308 17.3805V16.7507C10.9308 15.9191 11.1447 15.2812 11.5727 14.8371C12.0087 14.385 12.6304 14.1589 13.4379 14.1589C14.2372 14.1589 14.8428 14.3809 15.2546 14.825C15.6744 15.261 15.8844 15.8989 15.8844 16.7386V17.4048C15.8844 18.2445 15.6825 18.8783 15.2788 19.3063C14.8832 19.7342 14.2574 19.9482 13.4015 19.9482C12.9817 19.9482 12.6143 19.8997 12.2994 19.8028C11.9925 19.706 11.7382 19.5525 11.5363 19.3426C11.2941 19.3426 11.1124 19.383 10.9913 19.4637C10.8783 19.5445 10.8218 19.7261 10.8218 20.0087V22.6975C10.8218 22.7621 10.8016 22.8146 10.7612 22.8549C10.7208 22.9034 10.6684 22.9276 10.6038 22.9276H10.0345C9.96992 22.9276 9.91744 22.9034 9.87707 22.8549C9.8367 22.8146 9.81651 22.7621 9.81651 22.6975V19.9482ZM11.9481 17.3321C11.9481 17.9215 12.0531 18.3454 12.263 18.6038C12.481 18.8622 12.8605 18.9914 13.4015 18.9914C13.9344 18.9914 14.3099 18.8662 14.5279 18.6159C14.754 18.3575 14.867 17.9296 14.867 17.3321V16.8234C14.867 16.2663 14.758 15.8424 14.54 15.5517C14.3301 15.261 13.9586 15.1157 13.4257 15.1157C12.8928 15.1157 12.5133 15.261 12.2873 15.5517C12.0612 15.8424 11.9481 16.2663 11.9481 16.8234V17.3321ZM17.7524 10.9978C17.7524 10.9332 17.7726 10.8767 17.8129 10.8282C17.8614 10.7798 17.9179 10.7555 17.9825 10.7555H18.576C18.6406 10.7555 18.693 10.7798 18.7334 10.8282C18.7738 10.8767 18.794 10.9332 18.794 10.9978V19.6212C18.794 19.6858 18.7738 19.7423 18.7334 19.7907C18.693 19.8392 18.6406 19.8634 18.576 19.8634H17.9825C17.9179 19.8634 17.8614 19.8392 17.8129 19.7907C17.7726 19.7423 17.7524 19.6858 17.7524 19.6212V10.9978ZM20.4366 19.0398C20.4366 18.9752 20.4608 18.9227 20.5093 18.8824C20.5577 18.842 20.6142 18.8218 20.6788 18.8218H23.9853L23.9732 17.3321C23.957 16.6216 23.7794 16.0927 23.4403 15.7455C23.1011 15.3983 22.548 15.2247 21.781 15.2247C21.6922 15.2247 21.563 15.2287 21.3934 15.2368C21.2319 15.2368 21.0906 15.2449 20.9695 15.261C20.808 15.2772 20.7273 15.2207 20.7273 15.0915V14.5949C20.7273 14.5303 20.7434 14.4778 20.7757 14.4374C20.8161 14.3971 20.8807 14.3729 20.9695 14.3648C21.1794 14.3325 21.3773 14.3123 21.563 14.3042C21.7568 14.2961 21.8981 14.2921 21.9869 14.2921C22.5279 14.2921 22.9881 14.3648 23.3676 14.5101C23.7471 14.6555 24.0539 14.8613 24.2881 15.1278C24.5222 15.3943 24.6918 15.7092 24.7967 16.0725C24.9098 16.4358 24.9744 16.8355 24.9905 17.2715L25.0026 18.8218H25.802V19.8634H20.6788C20.6142 19.8634 20.5577 19.8473 20.5093 19.815C20.4608 19.7746 20.4366 19.7221 20.4366 19.6575V19.0398ZM25.7325 19.8634C25.6033 19.8634 25.5023 19.8473 25.4297 19.815C25.357 19.7746 25.3207 19.7342 25.3207 19.6938V18.9793C25.3207 18.9308 25.361 18.8945 25.4418 18.8703C25.5225 18.838 25.6194 18.8218 25.7325 18.8218H31.3522L30.9162 17.7802L30.6376 17.1383C30.3712 16.5166 30.0159 16.0564 29.5718 15.7576C29.1358 15.4589 28.5383 15.3095 27.7793 15.3095C27.7147 15.3095 27.5896 15.3175 27.4038 15.3337C27.2181 15.3418 27.0566 15.3539 26.9194 15.37C26.7417 15.3862 26.6529 15.3297 26.6529 15.2005V14.7039C26.6529 14.6393 26.6691 14.5909 26.7014 14.5586C26.7337 14.5182 26.7942 14.4899 26.883 14.4738C27.0526 14.4334 27.2383 14.4051 27.4402 14.389C27.6501 14.3729 27.8479 14.3648 28.0336 14.3648C28.4374 14.3648 28.8169 14.4051 29.1721 14.4859C29.5274 14.5586 29.8625 14.6999 30.1774 14.9098C30.4923 15.1117 30.783 15.3943 31.0494 15.7576C31.3159 16.1129 31.5662 16.5731 31.8003 17.1383L31.9335 17.4532L32.418 18.6765C32.4584 18.7411 32.4907 18.7814 32.5149 18.7976C32.5391 18.8137 32.5835 18.8218 32.6481 18.8218H32.7329V19.8634H25.7325ZM28.1548 12.1484C28.1548 12.0676 28.183 12.003 28.2395 11.9546C28.2961 11.9061 28.3607 11.8819 28.4333 11.8819H28.9662C29.0389 11.8819 29.0995 11.9061 29.1479 11.9546C29.2044 12.003 29.2327 12.0676 29.2327 12.1484V12.8024C29.2327 12.8751 29.2044 12.9356 29.1479 12.9841C29.0995 13.0325 29.0349 13.0567 28.9541 13.0567H28.4333C28.3526 13.0567 28.2839 13.0325 28.2274 12.9841C28.179 12.9356 28.1548 12.8751 28.1548 12.8024V12.1484ZM32.2517 18.9793C32.2517 18.9308 32.292 18.8945 32.3728 18.8703C32.4535 18.838 32.5504 18.8218 32.6635 18.8218H33.2085C33.2892 18.8218 33.378 18.8178 33.4749 18.8097C33.5718 18.8016 33.6647 18.7855 33.7535 18.7613C33.8423 18.729 33.915 18.6845 33.9715 18.628C34.0361 18.5634 34.0684 18.4787 34.0684 18.3737V15.2005C34.0684 15.1359 34.0886 15.0834 34.1289 15.043C34.1774 14.9946 34.2339 14.9704 34.2985 14.9704H34.8556C34.9202 14.9704 34.9727 14.9946 35.0131 15.043C35.0615 15.0834 35.0858 15.1359 35.0858 15.2005V18.5311C35.11 18.5957 35.1584 18.6482 35.2311 18.6886C35.3118 18.7209 35.3966 18.7491 35.4854 18.7734C35.5823 18.7895 35.6792 18.8016 35.7761 18.8097C35.873 18.8178 35.9578 18.8218 36.0305 18.8218H36.2V19.8634H36.0547C35.8044 19.8634 35.5339 19.8392 35.2432 19.7907C34.9606 19.7342 34.7265 19.6252 34.5407 19.4637C34.3389 19.6252 34.0967 19.7342 33.8141 19.7907C33.5395 19.8392 33.2892 19.8634 33.0631 19.8634H32.6635C32.5504 19.8634 32.4535 19.8513 32.3728 19.8271C32.292 19.7948 32.2517 19.7504 32.2517 19.6938V18.9793ZM33.0389 12.4875C33.0389 12.4067 33.0631 12.3422 33.1116 12.2937C33.1681 12.2453 33.2367 12.221 33.3175 12.221H33.7898C33.8706 12.221 33.9352 12.2453 33.9836 12.2937C34.0401 12.3422 34.0684 12.4067 34.0684 12.4875V13.1415C34.0684 13.2142 34.0401 13.2747 33.9836 13.3232C33.9271 13.3716 33.8625 13.3959 33.7898 13.3959H33.3175C33.2367 13.3959 33.1681 13.3716 33.1116 13.3232C33.0631 13.2747 33.0389 13.2142 33.0389 13.1415V12.4875ZM35.0131 12.4875C35.0131 12.4067 35.0414 12.3422 35.0979 12.2937C35.1625 12.2453 35.2311 12.221 35.3038 12.221H35.7761C35.8488 12.221 35.9134 12.2453 35.9699 12.2937C36.0264 12.3422 36.0547 12.4067 36.0547 12.4875V13.1415C36.0547 13.2142 36.0264 13.2747 35.9699 13.3232C35.9134 13.3716 35.8488 13.3959 35.7761 13.3959H35.3038C35.2311 13.3959 35.1625 13.3716 35.0979 13.3232C35.0414 13.2747 35.0131 13.2142 35.0131 13.1415V12.4875ZM35.7172 18.9793C35.7172 18.9308 35.7575 18.8945 35.8383 18.8703C35.919 18.838 36.0159 18.8218 36.129 18.8218H36.5892C36.6699 18.8218 36.7588 18.8178 36.8556 18.8097C36.9525 18.8016 37.0414 18.7855 37.1221 18.7613C37.2109 18.729 37.2836 18.6845 37.3401 18.628C37.4047 18.5634 37.437 18.4787 37.437 18.3737V15.7576C37.437 15.693 37.4572 15.6365 37.4976 15.588C37.5379 15.5396 37.5904 15.5154 37.655 15.5154H38.2121C38.2767 15.5154 38.3292 15.5396 38.3696 15.588C38.41 15.6365 38.4301 15.693 38.4301 15.7576V18.5554C38.4544 18.62 38.5028 18.6724 38.5755 18.7128C38.6562 18.7451 38.741 18.7734 38.8298 18.7976C38.9267 18.8137 39.0236 18.8259 39.1205 18.8339C39.2174 18.842 39.3022 18.846 39.3748 18.846H39.6413C39.714 18.846 39.7947 18.842 39.8835 18.8339C39.9804 18.8178 40.0652 18.7976 40.1379 18.7734C40.2186 18.7411 40.2872 18.6967 40.3438 18.6401C40.4003 18.5836 40.4285 18.5069 40.4285 18.41V15.3458C40.4285 15.2812 40.4487 15.2287 40.4891 15.1884C40.5375 15.1399 40.5941 15.1157 40.6587 15.1157H41.2158C41.2804 15.1157 41.3329 15.1399 41.3732 15.1884C41.4136 15.2287 41.4338 15.2812 41.4338 15.3458V18.5554C41.458 18.62 41.5065 18.6724 41.5791 18.7128C41.6518 18.7451 41.7366 18.7734 41.8335 18.7976C41.9384 18.8137 42.0474 18.8259 42.1605 18.8339C42.2735 18.842 42.3825 18.846 42.4875 18.846H42.8751C42.9962 18.846 43.089 18.846 43.1536 18.846C43.2263 18.838 43.2828 18.8218 43.3232 18.7976C43.3636 18.7653 43.3878 18.7209 43.3959 18.6644C43.412 18.6078 43.4201 18.5231 43.4201 18.41C43.4201 17.8448 43.4201 17.2756 43.4201 16.7023C43.4201 16.1209 43.412 15.5154 43.3959 14.8856C43.3959 14.821 43.416 14.7685 43.4564 14.7281C43.4968 14.6797 43.5493 14.6555 43.6139 14.6555H44.1831C44.2558 14.6555 44.3123 14.6797 44.3527 14.7281C44.393 14.7685 44.4132 14.821 44.4132 14.8856C44.4213 15.1601 44.4253 15.4064 44.4253 15.6244C44.4334 15.8424 44.4375 16.0523 44.4375 16.2542C44.4375 16.456 44.4375 16.6619 44.4375 16.8719C44.4375 17.0737 44.4375 17.2958 44.4375 17.538V17.974C44.4375 18.0709 44.4375 18.1799 44.4375 18.301C44.4375 18.4221 44.4334 18.5473 44.4253 18.6765C44.4253 18.7976 44.4213 18.9187 44.4132 19.0398C44.4052 19.1609 44.3971 19.2699 44.389 19.3668C44.3729 19.4556 44.3446 19.5283 44.3042 19.5848C44.2719 19.6414 44.2073 19.6898 44.1104 19.7302C43.9813 19.7705 43.7996 19.8028 43.5654 19.8271C43.3393 19.8432 43.0971 19.8513 42.8387 19.8513H42.6449C42.3543 19.8513 42.0636 19.8271 41.7729 19.7786C41.4822 19.7302 41.2319 19.6252 41.022 19.4637C40.8605 19.601 40.6546 19.7019 40.4043 19.7665C40.1621 19.8311 39.8997 19.8634 39.6171 19.8634H39.4112C39.1609 19.8634 38.9065 19.8392 38.6482 19.7907C38.3898 19.7342 38.1677 19.6252 37.982 19.4637C37.7882 19.6252 37.5541 19.7342 37.2796 19.7907C37.005 19.8392 36.7426 19.8634 36.4923 19.8634H36.129C36.0159 19.8634 35.919 19.8513 35.8383 19.8271C35.7575 19.7948 35.7172 19.7504 35.7172 19.6938V18.9793ZM46.4936 10.9978C46.4936 10.9332 46.5138 10.8767 46.5541 10.8282C46.6026 10.7798 46.6591 10.7555 46.7237 10.7555H47.3172C47.3818 10.7555 47.4342 10.7798 47.4746 10.8282C47.515 10.8767 47.5352 10.9332 47.5352 10.9978V19.6212C47.5352 19.6858 47.515 19.7423 47.4746 19.7907C47.4342 19.8392 47.3818 19.8634 47.3172 19.8634H46.7237C46.6591 19.8634 46.6026 19.8392 46.5541 19.7907C46.5138 19.7423 46.4936 19.6858 46.4936 19.6212V10.9978ZM46.0939 22.8065C45.9486 22.8065 45.8759 22.7581 45.8759 22.6612V22.4553C45.8759 22.3745 45.9486 22.3342 46.0939 22.3342H46.2998C46.2271 22.2453 46.1746 22.1363 46.1423 22.0071C46.11 21.886 46.0939 21.7649 46.0939 21.6438C46.0939 21.3047 46.1908 21.0544 46.3846 20.8929C46.5864 20.7395 46.869 20.6628 47.2324 20.6628C47.297 20.6628 47.3696 20.6668 47.4504 20.6749C47.5311 20.6829 47.6119 20.6951 47.6926 20.7112C47.7814 20.7435 47.8258 20.792 47.8258 20.8565V21.0261C47.8258 21.1149 47.7734 21.1593 47.6684 21.1593C47.6522 21.1593 47.5957 21.1553 47.4988 21.1472C47.4019 21.1472 47.3333 21.1472 47.2929 21.1472C46.865 21.1472 46.651 21.3289 46.651 21.6922C46.651 21.8618 46.6793 21.9991 46.7358 22.104C46.7923 22.2171 46.8529 22.2897 46.9175 22.322H47.7289C47.8662 22.322 47.9348 22.3705 47.9348 22.4674V22.6612C47.9348 22.7258 47.9147 22.7661 47.8743 22.7823C47.842 22.7984 47.7935 22.8065 47.7289 22.8065H46.0939ZM52.9388 19.8634V19.0892L55.8463 15.9065C56.1875 15.5338 56.4685 15.2098 56.6893 14.9345C56.91 14.6564 57.0735 14.3954 57.1796 14.1517C57.2885 13.9051 57.343 13.6471 57.343 13.3776C57.343 13.0679 57.2685 12.7998 57.1194 12.5733C56.9731 12.3468 56.7724 12.1718 56.5172 12.0486C56.262 11.9253 55.9753 11.8636 55.657 11.8636C55.3187 11.8636 55.0234 11.9339 54.771 12.0744C54.5216 12.212 54.328 12.4055 54.1904 12.655C54.0556 12.9044 53.9883 13.1969 53.9883 13.5324H52.9732C52.9732 13.0163 53.0922 12.5632 53.3302 12.1733C53.5682 11.7833 53.8922 11.4794 54.3022 11.2615C54.7151 11.0436 55.1782 10.9346 55.6914 10.9346C56.2076 10.9346 56.6649 11.0436 57.0634 11.2615C57.462 11.4794 57.7745 11.7733 58.0011 12.1432C58.2276 12.5131 58.3408 12.9245 58.3408 13.3776C58.3408 13.7016 58.2821 14.0184 58.1645 14.3281C58.0498 14.6349 57.8491 14.9775 57.5624 15.356C57.2785 15.7316 56.8842 16.1904 56.3796 16.7323L54.4012 18.8484V18.9172H58.4957V19.8634H52.9388ZM63.0246 19.9838C62.5199 19.9838 62.0655 19.8835 61.6612 19.6828C61.2569 19.4821 60.9329 19.2068 60.6892 18.857C60.4454 18.5072 60.3121 18.1086 60.2892 17.6613H61.3214C61.3615 18.0599 61.5422 18.3896 61.8633 18.6505C62.1873 18.9086 62.5744 19.0376 63.0246 19.0376C63.3859 19.0376 63.707 18.953 63.988 18.7839C64.2719 18.6147 64.4941 18.3824 64.6546 18.0871C64.8181 17.7889 64.8998 17.452 64.8998 17.0764C64.8998 16.6922 64.8152 16.3495 64.646 16.0484C64.4797 15.7445 64.2504 15.5051 63.9579 15.3302C63.6654 15.1553 63.3314 15.0664 62.9558 15.0635C62.6862 15.0607 62.4095 15.1022 62.1257 15.1883C61.8418 15.2714 61.6081 15.3789 61.4246 15.5108L60.4268 15.3904L60.9601 11.055H65.5363V12.0012H61.8547L61.5451 14.599H61.5967C61.7773 14.4557 62.0038 14.3367 62.2762 14.242C62.5486 14.1474 62.8325 14.1001 63.1278 14.1001C63.6669 14.1001 64.1471 14.2291 64.5686 14.4872C64.993 14.7424 65.3256 15.0922 65.5665 15.5366C65.8102 15.9811 65.932 16.4886 65.932 17.0592C65.932 17.6212 65.8059 18.1229 65.5535 18.5645C65.3041 19.0032 64.96 19.3502 64.5213 19.6053C64.0826 19.8577 63.5837 19.9838 63.0246 19.9838ZM70.5136 19.9838C69.8656 19.9838 69.3137 19.8075 68.8578 19.4548C68.4019 19.0993 68.0535 18.5846 67.8126 17.9108C67.5718 17.2341 67.4513 16.4169 67.4513 15.4592C67.4513 14.5073 67.5718 13.6944 67.8126 13.0206C68.0564 12.3439 68.4062 11.8278 68.8621 11.4722C69.3208 11.1138 69.8714 10.9346 70.5136 10.9346C71.1559 10.9346 71.705 11.1138 72.1609 11.4722C72.6197 11.8278 72.9695 12.3439 73.2103 13.0206C73.4541 13.6944 73.5759 14.5073 73.5759 15.4592C73.5759 16.4169 73.4555 17.2341 73.2146 17.9108C72.9738 18.5846 72.6254 19.0993 72.1695 19.4548C71.7136 19.8075 71.1616 19.9838 70.5136 19.9838ZM70.5136 19.0376C71.1559 19.0376 71.6548 18.7279 72.0104 18.1086C72.3659 17.4893 72.5437 16.6061 72.5437 15.4592C72.5437 14.6965 72.462 14.0471 72.2985 13.5109C72.138 12.9747 71.9057 12.5661 71.6018 12.2851C71.3007 12.0041 70.938 11.8636 70.5136 11.8636C69.8771 11.8636 69.3796 12.1776 69.0212 12.8055C68.6628 13.4306 68.4836 14.3152 68.4836 15.4592C68.4836 16.2219 68.5639 16.8699 68.7244 17.4033C68.885 17.9366 69.1158 18.3423 69.4169 18.6204C69.7208 18.8986 70.0864 19.0376 70.5136 19.0376Z" fill="#E5E5EF"/>
</svg>
