<svg width="797" height="160" viewBox="0 0 797 160" fill="none" xmlns="http://www.w3.org/2000/svg">
<line x1="1.04925" y1="18.1984" x2="796.26" y2="18.1984" stroke="#E5E5EF" stroke-width="0.806515" stroke-linecap="round"/>
<line x1="1.04919" y1="52.382" x2="796.26" y2="52.382" stroke="#E5E5EF" stroke-width="0.806515" stroke-linecap="round"/>
<line x1="1.04919" y1="86.5578" x2="796.26" y2="86.5578" stroke="#E5E5EF" stroke-width="0.806515" stroke-linecap="round"/>
<line x1="1.04919" y1="120.741" x2="796.26" y2="120.741" stroke="#E5E5EF" stroke-width="0.806515" stroke-linecap="round"/>
<line x1="1.04925" y1="158.609" x2="796.26" y2="158.609" stroke="#E5E5EF" stroke-width="0.806515" stroke-linecap="round"/>
<g style="mix-blend-mode:multiply" opacity="0.33">
<path d="M46.091 77.1366C32.851 97.4094 10.777 103.319 1.39502 103.739V144.308H796.697V37.294C785.428 41.0139 758.839 57.7548 742.631 94.9589C722.371 141.464 691.838 111.946 679.568 103.035C667.298 94.1234 645.612 91.3387 632.2 92.7311C618.789 94.1234 597.673 97.1867 587.685 79.9213C577.698 62.656 567.616 51.4285 540.317 55.6941C516.063 56.5295 505.505 56.2511 494.091 47.8969C482.677 39.5427 448.72 20.0495 424.465 43.9983C400.21 67.947 375.1 78.8074 348.847 46.5045C322.595 14.2016 294.631 18.1002 283.788 28.6822C272.944 39.2642 265.804 71.5204 239.674 81.0012C217.468 85.3089 204.495 92.3912 181.061 116.123C150.814 146.755 132.552 119.743 118.57 86.8831C104.588 54.0233 62.6411 51.7955 46.091 77.1366Z" fill="url(#paint0_linear_27_106)"/>
</g>
<path d="M3.03375 103.398C12.3835 102.978 34.3817 97.0804 47.5763 76.8472C64.0695 51.5556 105.872 53.7791 119.806 86.5747C133.74 119.37 151.94 146.329 182.083 115.757C212.226 85.1851 214.973 89.0732 240.948 81.2941C267.173 73.4398 267.775 47.0169 286.44 28.775C297.246 18.2137 323.131 14.0352 349.293 46.275C375.455 78.5148 400.48 67.6755 424.651 43.7736C448.823 19.8717 482.663 39.3268 494.037 47.6646C505.412 56.0025 519.013 58.5903 540.105 55.4466C566.384 51.53 577.358 62.3949 587.311 79.6265C597.264 96.8581 618.307 93.8009 631.673 92.4112C645.038 91.0216 666.65 93.8009 678.878 102.695C691.106 111.588 721.534 141.049 741.724 94.6347C757.876 57.5033 784.375 40.7951 795.605 37.0825" stroke="#8A74F9" stroke-width="2.41955" stroke-linecap="round" stroke-linejoin="round"/>
<line x1="300.807" y1="27.8066" x2="300.807" y2="150.194" stroke="#8A74F9" stroke-width="1.61303" stroke-linecap="round"/>
<g filter="url(#filter0_d_27_106)">
<ellipse cx="301.525" cy="23.275" rx="9.52468" ry="9.27493" fill="#8A74F9"/>
<path d="M310.243 23.275C310.243 27.932 306.36 31.7435 301.525 31.7435C296.689 31.7435 292.807 27.932 292.807 23.275C292.807 18.6181 296.689 14.8066 301.525 14.8066C306.36 14.8066 310.243 18.6181 310.243 23.275Z" stroke="white" stroke-width="1.61303"/>
</g>
<path fill-rule="evenodd" clip-rule="evenodd" d="M270.371 0.000122116C273.935 0.000122091 276.823 2.88883 276.823 6.45224L276.823 16.7644L283.79 20.895C284.844 21.5198 284.844 23.0451 283.79 23.6699L276.823 27.8006L276.823 34.6803C276.823 38.2437 273.935 41.1324 270.371 41.1324L200.452 41.1324C196.889 41.1324 194 38.2437 194 34.6803L194 6.45224C194 2.88884 196.889 0.00012198 200.452 0.000121868L270.371 0.000122116Z" fill="#1E1B39"/>
<path d="M242.346 27.5419V33.4142H241.457V28.4308H241.423L240.018 29.3483V28.4996L241.483 27.5419H242.346ZM244.172 33.4687C244.015 33.4687 243.88 33.4132 243.768 33.3024C243.655 33.1896 243.598 33.0539 243.598 32.8952C243.598 32.7385 243.655 32.6046 243.768 32.4938C243.88 32.381 244.015 32.3246 244.172 32.3246C244.329 32.3246 244.463 32.381 244.576 32.4938C244.689 32.6046 244.745 32.7385 244.745 32.8952C244.745 33.0003 244.719 33.0969 244.665 33.1848C244.613 33.2708 244.545 33.3396 244.459 33.3912C244.373 33.4429 244.277 33.4687 244.172 33.4687ZM247.714 33.4945C247.32 33.4945 246.968 33.4266 246.659 33.2909C246.351 33.1552 246.107 32.9669 245.927 32.726C245.75 32.4833 245.654 32.2023 245.641 31.883H246.541C246.552 32.057 246.611 32.208 246.716 32.3361C246.823 32.4622 246.963 32.5597 247.135 32.6285C247.307 32.6974 247.498 32.7318 247.708 32.7318C247.939 32.7318 248.144 32.6916 248.322 32.6113C248.501 32.5311 248.642 32.4192 248.743 32.2759C248.844 32.1306 248.895 31.9633 248.895 31.7741C248.895 31.5772 248.844 31.4042 248.743 31.2551C248.644 31.1041 248.497 30.9856 248.304 30.8996C248.113 30.8135 247.882 30.7705 247.611 30.7705H247.114V30.048H247.611C247.828 30.048 248.02 30.0088 248.184 29.9304C248.35 29.852 248.48 29.7431 248.574 29.6035C248.668 29.4621 248.714 29.2967 248.714 29.1075C248.714 28.9259 248.673 28.7682 248.591 28.6344C248.511 28.4987 248.396 28.3926 248.247 28.3161C248.1 28.2396 247.926 28.2014 247.725 28.2014C247.534 28.2014 247.355 28.2368 247.189 28.3075C247.025 28.3763 246.891 28.4757 246.788 28.6057C246.684 28.7338 246.629 28.8877 246.621 29.0673H245.764C245.774 28.75 245.867 28.4709 246.045 28.2301C246.225 27.9892 246.462 27.8009 246.756 27.6652C247.05 27.5295 247.377 27.4617 247.737 27.4617C248.113 27.4617 248.438 27.5352 248.712 27.6824C248.987 27.8277 249.199 28.0217 249.348 28.2645C249.499 28.5073 249.574 28.773 249.572 29.0616C249.574 29.3904 249.482 29.6695 249.296 29.8989C249.113 30.1282 248.868 30.2821 248.562 30.3605V30.4064C248.952 30.4656 249.254 30.6205 249.469 30.8709C249.685 31.1213 249.792 31.4319 249.79 31.8028C249.792 32.1258 249.702 32.4154 249.52 32.6716C249.34 32.9277 249.095 33.1294 248.783 33.2766C248.472 33.4218 248.115 33.4945 247.714 33.4945ZM253.939 32.3131V32.0035C253.939 31.7817 253.985 31.5791 254.076 31.3956C254.17 31.2102 254.306 31.062 254.483 30.9512C254.663 30.8384 254.88 30.782 255.134 30.782C255.394 30.782 255.612 30.8374 255.788 30.9483C255.964 31.0592 256.097 31.2073 256.187 31.3927C256.278 31.5782 256.324 31.7817 256.324 32.0035V32.3131C256.324 32.5349 256.278 32.7385 256.187 32.9239C256.095 33.1074 255.96 33.2555 255.782 33.3683C255.606 33.4792 255.39 33.5346 255.134 33.5346C254.876 33.5346 254.658 33.4792 254.481 33.3683C254.303 33.2555 254.168 33.1074 254.076 32.9239C253.985 32.7385 253.939 32.5349 253.939 32.3131ZM254.607 32.0035V32.3131C254.607 32.4775 254.646 32.6266 254.724 32.7604C254.803 32.8942 254.939 32.9611 255.134 32.9611C255.327 32.9611 255.462 32.8942 255.539 32.7604C255.615 32.6266 255.653 32.4775 255.653 32.3131V32.0035C255.653 31.8391 255.616 31.69 255.541 31.5562C255.469 31.4224 255.333 31.3555 255.134 31.3555C254.943 31.3555 254.807 31.4224 254.727 31.5562C254.647 31.69 254.607 31.8391 254.607 32.0035ZM250.985 28.9527V28.643C250.985 28.4212 251.031 28.2177 251.123 28.0322C251.217 27.8468 251.352 27.6987 251.53 27.5878C251.71 27.4769 251.927 27.4215 252.181 27.4215C252.441 27.4215 252.659 27.4769 252.835 27.5878C253.011 27.6987 253.143 27.8468 253.233 28.0322C253.323 28.2177 253.368 28.4212 253.368 28.643V28.9527C253.368 29.1744 253.322 29.378 253.23 29.5634C253.141 29.7469 253.007 29.895 252.829 30.0078C252.653 30.1187 252.437 30.1741 252.181 30.1741C251.921 30.1741 251.702 30.1187 251.524 30.0078C251.349 29.895 251.215 29.7469 251.123 29.5634C251.031 29.378 250.985 29.1744 250.985 28.9527ZM251.656 28.643V28.9527C251.656 29.117 251.695 29.2661 251.771 29.4C251.849 29.5338 251.986 29.6007 252.181 29.6007C252.372 29.6007 252.506 29.5338 252.582 29.4C252.661 29.2661 252.7 29.117 252.7 28.9527V28.643C252.7 28.4786 252.663 28.3295 252.588 28.1957C252.514 28.0619 252.378 27.995 252.181 27.995C251.99 27.995 251.854 28.0619 251.774 28.1957C251.695 28.3295 251.656 28.4786 251.656 28.643ZM251.258 33.4142L255.295 27.5419H255.98L251.943 33.4142H251.258Z" fill="#8A74F9"/>
<ellipse cx="262.749" cy="29.8381" rx="4.14588" ry="4.03717" fill="#8A74F9"/>
<path d="M263.68 29.4061L263.569 29.5144C262.973 30.0941 262.378 30.6738 261.783 31.2536C261.662 31.3709 261.52 31.3966 261.378 31.3326C261.241 31.2699 261.166 31.1551 261.186 31.0164C261.204 30.9161 261.252 30.8235 261.325 30.7505C261.901 30.1798 262.484 29.6163 263.065 29.0507L263.175 28.9435C263.139 28.9376 263.103 28.9336 263.067 28.9314C262.835 28.9304 262.601 28.9326 262.369 28.9297C262.184 28.9277 262.057 28.8041 262.055 28.6324C262.052 28.4452 262.168 28.3196 262.361 28.3184C262.896 28.315 263.432 28.3146 263.967 28.3172C264.183 28.3184 264.305 28.4323 264.309 28.6407C264.319 29.1579 264.325 29.6753 264.327 30.1926C264.327 30.3823 264.201 30.4938 264.007 30.4923C263.824 30.4906 263.704 30.3763 263.699 30.1921C263.693 29.9734 263.692 29.7546 263.689 29.5357C263.688 29.5012 263.684 29.4674 263.68 29.4061Z" fill="white"/>
<path d="M203.817 19.9482C203.817 19.4314 203.926 19.056 204.144 18.8218C204.362 18.5877 204.672 18.4544 205.076 18.4221C205.02 18.2929 204.979 18.1355 204.955 17.9498C204.939 17.756 204.931 17.5663 204.931 17.3805V16.7507C204.931 15.9191 205.145 15.2812 205.573 14.8371C206.009 14.385 206.63 14.1589 207.438 14.1589C208.237 14.1589 208.843 14.3809 209.255 14.825C209.674 15.261 209.884 15.8989 209.884 16.7386V17.4048C209.884 18.2445 209.683 18.8783 209.279 19.3063C208.883 19.7342 208.257 19.9482 207.402 19.9482C206.982 19.9482 206.614 19.8997 206.299 19.8028C205.993 19.706 205.738 19.5525 205.536 19.3426C205.294 19.3426 205.112 19.383 204.991 19.4637C204.878 19.5445 204.822 19.7261 204.822 20.0087V22.6975C204.822 22.7621 204.802 22.8146 204.761 22.8549C204.721 22.9034 204.668 22.9276 204.604 22.9276H204.035C203.97 22.9276 203.917 22.9034 203.877 22.8549C203.837 22.8146 203.817 22.7621 203.817 22.6975V19.9482ZM205.948 17.3321C205.948 17.9215 206.053 18.3454 206.263 18.6038C206.481 18.8622 206.861 18.9914 207.402 18.9914C207.934 18.9914 208.31 18.8662 208.528 18.6159C208.754 18.3575 208.867 17.9296 208.867 17.3321V16.8234C208.867 16.2663 208.758 15.8424 208.54 15.5517C208.33 15.261 207.959 15.1157 207.426 15.1157C206.893 15.1157 206.513 15.261 206.287 15.5517C206.061 15.8424 205.948 16.2663 205.948 16.8234V17.3321ZM211.752 10.9978C211.752 10.9332 211.773 10.8767 211.813 10.8282C211.861 10.7798 211.918 10.7555 211.983 10.7555H212.576C212.641 10.7555 212.693 10.7798 212.733 10.8282C212.774 10.8767 212.794 10.9332 212.794 10.9978V19.6212C212.794 19.6858 212.774 19.7423 212.733 19.7907C212.693 19.8392 212.641 19.8634 212.576 19.8634H211.983C211.918 19.8634 211.861 19.8392 211.813 19.7907C211.773 19.7423 211.752 19.6858 211.752 19.6212V10.9978ZM214.437 19.0398C214.437 18.9752 214.461 18.9227 214.509 18.8824C214.558 18.842 214.614 18.8218 214.679 18.8218H217.985L217.973 17.3321C217.957 16.6216 217.779 16.0927 217.44 15.7455C217.101 15.3983 216.548 15.2247 215.781 15.2247C215.692 15.2247 215.563 15.2287 215.393 15.2368C215.232 15.2368 215.091 15.2449 214.97 15.261C214.808 15.2772 214.727 15.2207 214.727 15.0915V14.5949C214.727 14.5303 214.743 14.4778 214.776 14.4374C214.816 14.3971 214.881 14.3729 214.97 14.3648C215.179 14.3325 215.377 14.3123 215.563 14.3042C215.757 14.2961 215.898 14.2921 215.987 14.2921C216.528 14.2921 216.988 14.3648 217.368 14.5101C217.747 14.6555 218.054 14.8613 218.288 15.1278C218.522 15.3943 218.692 15.7092 218.797 16.0725C218.91 16.4358 218.974 16.8355 218.991 17.2715L219.003 18.8218H219.802V19.8634H214.679C214.614 19.8634 214.558 19.8473 214.509 19.815C214.461 19.7746 214.437 19.7221 214.437 19.6575V19.0398ZM219.732 19.8634C219.603 19.8634 219.502 19.8473 219.43 19.815C219.357 19.7746 219.321 19.7342 219.321 19.6938V18.9793C219.321 18.9308 219.361 18.8945 219.442 18.8703C219.523 18.838 219.619 18.8218 219.732 18.8218H225.352L224.916 17.7802L224.638 17.1383C224.371 16.5166 224.016 16.0564 223.572 15.7576C223.136 15.4589 222.538 15.3095 221.779 15.3095C221.715 15.3095 221.59 15.3175 221.404 15.3337C221.218 15.3418 221.057 15.3539 220.919 15.37C220.742 15.3862 220.653 15.3297 220.653 15.2005V14.7039C220.653 14.6393 220.669 14.5909 220.701 14.5586C220.734 14.5182 220.794 14.4899 220.883 14.4738C221.053 14.4334 221.238 14.4051 221.44 14.389C221.65 14.3729 221.848 14.3648 222.034 14.3648C222.437 14.3648 222.817 14.4051 223.172 14.4859C223.527 14.5586 223.862 14.6999 224.177 14.9098C224.492 15.1117 224.783 15.3943 225.049 15.7576C225.316 16.1129 225.566 16.5731 225.8 17.1383L225.934 17.4532L226.418 18.6765C226.458 18.7411 226.491 18.7814 226.515 18.7976C226.539 18.8137 226.584 18.8218 226.648 18.8218H226.733V19.8634H219.732ZM222.155 12.1484C222.155 12.0676 222.183 12.003 222.24 11.9546C222.296 11.9061 222.361 11.8819 222.433 11.8819H222.966C223.039 11.8819 223.099 11.9061 223.148 11.9546C223.204 12.003 223.233 12.0676 223.233 12.1484V12.8024C223.233 12.8751 223.204 12.9356 223.148 12.9841C223.099 13.0325 223.035 13.0567 222.954 13.0567H222.433C222.353 13.0567 222.284 13.0325 222.227 12.9841C222.179 12.9356 222.155 12.8751 222.155 12.8024V12.1484ZM226.252 18.9793C226.252 18.9308 226.292 18.8945 226.373 18.8703C226.454 18.838 226.55 18.8218 226.663 18.8218H227.208C227.289 18.8218 227.378 18.8178 227.475 18.8097C227.572 18.8016 227.665 18.7855 227.753 18.7613C227.842 18.729 227.915 18.6845 227.972 18.628C228.036 18.5634 228.068 18.4787 228.068 18.3737V15.2005C228.068 15.1359 228.089 15.0834 228.129 15.043C228.177 14.9946 228.234 14.9704 228.299 14.9704H228.856C228.92 14.9704 228.973 14.9946 229.013 15.043C229.062 15.0834 229.086 15.1359 229.086 15.2005V18.5311C229.11 18.5957 229.158 18.6482 229.231 18.6886C229.312 18.7209 229.397 18.7491 229.485 18.7734C229.582 18.7895 229.679 18.8016 229.776 18.8097C229.873 18.8178 229.958 18.8218 230.03 18.8218H230.2V19.8634H230.055C229.804 19.8634 229.534 19.8392 229.243 19.7907C228.961 19.7342 228.726 19.6252 228.541 19.4637C228.339 19.6252 228.097 19.7342 227.814 19.7907C227.54 19.8392 227.289 19.8634 227.063 19.8634H226.663C226.55 19.8634 226.454 19.8513 226.373 19.8271C226.292 19.7948 226.252 19.7504 226.252 19.6938V18.9793ZM227.039 12.4875C227.039 12.4067 227.063 12.3422 227.112 12.2937C227.168 12.2453 227.237 12.221 227.317 12.221H227.79C227.871 12.221 227.935 12.2453 227.984 12.2937C228.04 12.3422 228.068 12.4067 228.068 12.4875V13.1415C228.068 13.2142 228.04 13.2747 227.984 13.3232C227.927 13.3716 227.862 13.3959 227.79 13.3959H227.317C227.237 13.3959 227.168 13.3716 227.112 13.3232C227.063 13.2747 227.039 13.2142 227.039 13.1415V12.4875ZM229.013 12.4875C229.013 12.4067 229.041 12.3422 229.098 12.2937C229.162 12.2453 229.231 12.221 229.304 12.221H229.776C229.849 12.221 229.913 12.2453 229.97 12.2937C230.026 12.3422 230.055 12.4067 230.055 12.4875V13.1415C230.055 13.2142 230.026 13.2747 229.97 13.3232C229.913 13.3716 229.849 13.3959 229.776 13.3959H229.304C229.231 13.3959 229.162 13.3716 229.098 13.3232C229.041 13.2747 229.013 13.2142 229.013 13.1415V12.4875ZM229.717 18.9793C229.717 18.9308 229.758 18.8945 229.838 18.8703C229.919 18.838 230.016 18.8218 230.129 18.8218H230.589C230.67 18.8218 230.759 18.8178 230.856 18.8097C230.953 18.8016 231.041 18.7855 231.122 18.7613C231.211 18.729 231.284 18.6845 231.34 18.628C231.405 18.5634 231.437 18.4787 231.437 18.3737V15.7576C231.437 15.693 231.457 15.6365 231.498 15.588C231.538 15.5396 231.59 15.5154 231.655 15.5154H232.212C232.277 15.5154 232.329 15.5396 232.37 15.588C232.41 15.6365 232.43 15.693 232.43 15.7576V18.5554C232.454 18.62 232.503 18.6724 232.575 18.7128C232.656 18.7451 232.741 18.7734 232.83 18.7976C232.927 18.8137 233.024 18.8259 233.121 18.8339C233.217 18.842 233.302 18.846 233.375 18.846H233.641C233.714 18.846 233.795 18.842 233.884 18.8339C233.98 18.8178 234.065 18.7976 234.138 18.7734C234.219 18.7411 234.287 18.6967 234.344 18.6401C234.4 18.5836 234.429 18.5069 234.429 18.41V15.3458C234.429 15.2812 234.449 15.2287 234.489 15.1884C234.538 15.1399 234.594 15.1157 234.659 15.1157H235.216C235.28 15.1157 235.333 15.1399 235.373 15.1884C235.414 15.2287 235.434 15.2812 235.434 15.3458V18.5554C235.458 18.62 235.506 18.6724 235.579 18.7128C235.652 18.7451 235.737 18.7734 235.833 18.7976C235.938 18.8137 236.047 18.8259 236.16 18.8339C236.274 18.842 236.383 18.846 236.488 18.846H236.875C236.996 18.846 237.089 18.846 237.154 18.846C237.226 18.838 237.283 18.8218 237.323 18.7976C237.364 18.7653 237.388 18.7209 237.396 18.6644C237.412 18.6078 237.42 18.5231 237.42 18.41C237.42 17.8448 237.42 17.2756 237.42 16.7023C237.42 16.1209 237.412 15.5154 237.396 14.8856C237.396 14.821 237.416 14.7685 237.456 14.7281C237.497 14.6797 237.549 14.6555 237.614 14.6555H238.183C238.256 14.6555 238.312 14.6797 238.353 14.7281C238.393 14.7685 238.413 14.821 238.413 14.8856C238.421 15.1601 238.425 15.4064 238.425 15.6244C238.433 15.8424 238.437 16.0523 238.437 16.2542C238.437 16.456 238.437 16.6619 238.437 16.8719C238.437 17.0737 238.437 17.2958 238.437 17.538V17.974C238.437 18.0709 238.437 18.1799 238.437 18.301C238.437 18.4221 238.433 18.5473 238.425 18.6765C238.425 18.7976 238.421 18.9187 238.413 19.0398C238.405 19.1609 238.397 19.2699 238.389 19.3668C238.373 19.4556 238.345 19.5283 238.304 19.5848C238.272 19.6414 238.207 19.6898 238.11 19.7302C237.981 19.7705 237.8 19.8028 237.565 19.8271C237.339 19.8432 237.097 19.8513 236.839 19.8513H236.645C236.354 19.8513 236.064 19.8271 235.773 19.7786C235.482 19.7302 235.232 19.6252 235.022 19.4637C234.861 19.601 234.655 19.7019 234.404 19.7665C234.162 19.8311 233.9 19.8634 233.617 19.8634H233.411C233.161 19.8634 232.907 19.8392 232.648 19.7907C232.39 19.7342 232.168 19.6252 231.982 19.4637C231.788 19.6252 231.554 19.7342 231.28 19.7907C231.005 19.8392 230.743 19.8634 230.492 19.8634H230.129C230.016 19.8634 229.919 19.8513 229.838 19.8271C229.758 19.7948 229.717 19.7504 229.717 19.6938V18.9793ZM240.494 10.9978C240.494 10.9332 240.514 10.8767 240.554 10.8282C240.603 10.7798 240.659 10.7555 240.724 10.7555H241.317C241.382 10.7555 241.434 10.7798 241.475 10.8282C241.515 10.8767 241.535 10.9332 241.535 10.9978V19.6212C241.535 19.6858 241.515 19.7423 241.475 19.7907C241.434 19.8392 241.382 19.8634 241.317 19.8634H240.724C240.659 19.8634 240.603 19.8392 240.554 19.7907C240.514 19.7423 240.494 19.6858 240.494 19.6212V10.9978ZM240.094 22.8065C239.949 22.8065 239.876 22.7581 239.876 22.6612V22.4553C239.876 22.3745 239.949 22.3342 240.094 22.3342H240.3C240.227 22.2453 240.175 22.1363 240.142 22.0071C240.11 21.886 240.094 21.7649 240.094 21.6438C240.094 21.3047 240.191 21.0544 240.385 20.8929C240.586 20.7395 240.869 20.6628 241.232 20.6628C241.297 20.6628 241.37 20.6668 241.45 20.6749C241.531 20.6829 241.612 20.6951 241.693 20.7112C241.781 20.7435 241.826 20.792 241.826 20.8565V21.0261C241.826 21.1149 241.773 21.1593 241.668 21.1593C241.652 21.1593 241.596 21.1553 241.499 21.1472C241.402 21.1472 241.333 21.1472 241.293 21.1472C240.865 21.1472 240.651 21.3289 240.651 21.6922C240.651 21.8618 240.679 21.9991 240.736 22.104C240.792 22.2171 240.853 22.2897 240.917 22.322H241.729C241.866 22.322 241.935 22.3705 241.935 22.4674V22.6612C241.935 22.7258 241.915 22.7661 241.874 22.7823C241.842 22.7984 241.794 22.8065 241.729 22.8065H240.094ZM246.939 19.8634V19.0892L249.846 15.9065C250.187 15.5338 250.468 15.2098 250.689 14.9345C250.91 14.6564 251.073 14.3954 251.18 14.1517C251.289 13.9051 251.343 13.6471 251.343 13.3776C251.343 13.0679 251.268 12.7998 251.119 12.5733C250.973 12.3468 250.772 12.1718 250.517 12.0486C250.262 11.9253 249.975 11.8636 249.657 11.8636C249.319 11.8636 249.023 11.9339 248.771 12.0744C248.522 12.212 248.328 12.4055 248.19 12.655C248.056 12.9044 247.988 13.1969 247.988 13.5324H246.973C246.973 13.0163 247.092 12.5632 247.33 12.1733C247.568 11.7833 247.892 11.4794 248.302 11.2615C248.715 11.0436 249.178 10.9346 249.691 10.9346C250.208 10.9346 250.665 11.0436 251.063 11.2615C251.462 11.4794 251.775 11.7733 252.001 12.1432C252.228 12.5131 252.341 12.9245 252.341 13.3776C252.341 13.7016 252.282 14.0184 252.164 14.3281C252.05 14.6349 251.849 14.9775 251.562 15.356C251.278 15.7316 250.884 16.1904 250.38 16.7323L248.401 18.8484V18.9172H252.496V19.8634H246.939ZM257.025 19.9838C256.52 19.9838 256.065 19.8835 255.661 19.6828C255.257 19.4821 254.933 19.2068 254.689 18.857C254.445 18.5072 254.312 18.1086 254.289 17.6613H255.321C255.362 18.0599 255.542 18.3896 255.863 18.6505C256.187 18.9086 256.574 19.0376 257.025 19.0376C257.386 19.0376 257.707 18.953 257.988 18.7839C258.272 18.6147 258.494 18.3824 258.655 18.0871C258.818 17.7889 258.9 17.452 258.9 17.0764C258.9 16.6922 258.815 16.3495 258.646 16.0484C258.48 15.7445 258.25 15.5051 257.958 15.3302C257.665 15.1553 257.331 15.0664 256.956 15.0635C256.686 15.0607 256.41 15.1022 256.126 15.1883C255.842 15.2714 255.608 15.3789 255.425 15.5108L254.427 15.3904L254.96 11.055H259.536V12.0012H255.855L255.545 14.599H255.597C255.777 14.4557 256.004 14.3367 256.276 14.242C256.549 14.1474 256.832 14.1001 257.128 14.1001C257.667 14.1001 258.147 14.2291 258.569 14.4872C258.993 14.7424 259.326 15.0922 259.566 15.5366C259.81 15.9811 259.932 16.4886 259.932 17.0592C259.932 17.6212 259.806 18.1229 259.554 18.5645C259.304 19.0032 258.96 19.3502 258.521 19.6053C258.083 19.8577 257.584 19.9838 257.025 19.9838ZM264.514 19.9838C263.866 19.9838 263.314 19.8075 262.858 19.4548C262.402 19.0993 262.053 18.5846 261.813 17.9108C261.572 17.2341 261.451 16.4169 261.451 15.4592C261.451 14.5073 261.572 13.6944 261.813 13.0206C262.056 12.3439 262.406 11.8278 262.862 11.4722C263.321 11.1138 263.871 10.9346 264.514 10.9346C265.156 10.9346 265.705 11.1138 266.161 11.4722C266.62 11.8278 266.969 12.3439 267.21 13.0206C267.454 13.6944 267.576 14.5073 267.576 15.4592C267.576 16.4169 267.455 17.2341 267.215 17.9108C266.974 18.5846 266.625 19.0993 266.17 19.4548C265.714 19.8075 265.162 19.9838 264.514 19.9838ZM264.514 19.0376C265.156 19.0376 265.655 18.7279 266.01 18.1086C266.366 17.4893 266.544 16.6061 266.544 15.4592C266.544 14.6965 266.462 14.0471 266.299 13.5109C266.138 12.9747 265.906 12.5661 265.602 12.2851C265.301 12.0041 264.938 11.8636 264.514 11.8636C263.877 11.8636 263.38 12.1776 263.021 12.8055C262.663 13.4306 262.484 14.3152 262.484 15.4592C262.484 16.2219 262.564 16.8699 262.724 17.4033C262.885 17.9366 263.116 18.3423 263.417 18.6204C263.721 18.8986 264.086 19.0376 264.514 19.0376Z" fill="#E5E5EF"/>
<defs>
<filter id="filter0_d_27_106" x="285.548" y="14.0001" width="31.9536" height="31.4541" filterUnits="userSpaceOnUse" color-interpolation-filters="sRGB">
<feFlood flood-opacity="0" result="BackgroundImageFix"/>
<feColorMatrix in="SourceAlpha" type="matrix" values="0 0 0 0 0 0 0 0 0 0 0 0 0 0 0 0 0 0 127 0" result="hardAlpha"/>
<feOffset dy="6.45212"/>
<feGaussianBlur stdDeviation="3.22606"/>
<feComposite in2="hardAlpha" operator="out"/>
<feColorMatrix type="matrix" values="0 0 0 0 0.0509804 0 0 0 0 0.0392157 0 0 0 0 0.172549 0 0 0 0.08 0"/>
<feBlend mode="normal" in2="BackgroundImageFix" result="effect1_dropShadow_27_106"/>
<feBlend mode="normal" in="SourceGraphic" in2="effect1_dropShadow_27_106" result="shape"/>
</filter>
<linearGradient id="paint0_linear_27_106" x1="399.046" y1="21.0704" x2="399.046" y2="237.839" gradientUnits="userSpaceOnUse">
<stop stop-color="#8A74F9"/>
<stop offset="0.479167" stop-color="#8A74F9" stop-opacity="0.263733"/>
<stop offset="1" stop-color="#8A74F9" stop-opacity="0"/>
</linearGradient>
</defs>
</svg>
