<svg width="15" height="16" viewBox="0 0 15 16" fill="none" xmlns="http://www.w3.org/2000/svg">
<g id="vuesax/outline/arrow-3">
<g id="arrow-3">
<path id="Vector" d="M6.50238 5.02457C6.38412 5.02457 6.26584 4.98102 6.17247 4.88765L4.18691 2.90209L2.20134 4.88765C2.02083 5.06816 1.72207 5.06816 1.54156 4.88765C1.36105 4.70715 1.36105 4.40838 1.54156 4.22787L3.85704 1.9124C3.94418 1.82526 4.06242 1.77548 4.18691 1.77548C4.31139 1.77548 4.42967 1.82526 4.51681 1.9124L6.83225 4.22787C7.01276 4.40838 7.01276 4.70715 6.83225 4.88765C6.73889 4.98102 6.62064 5.02457 6.50238 5.02457Z" fill="#292D32"/>
<path id="Vector_2" d="M4.18677 13.9129C3.93158 13.9129 3.71995 13.7013 3.71995 13.4461V2.24231C3.71995 1.98711 3.93158 1.77548 4.18677 1.77548C4.44197 1.77548 4.6536 1.98711 4.6536 2.24231V13.4461C4.6536 13.7013 4.44197 13.9129 4.18677 13.9129Z" fill="#292D32"/>
<path id="Vector_3" d="M10.7535 13.9129C10.629 13.9129 10.5107 13.8631 10.4236 13.776L8.10812 11.4605C7.92761 11.28 7.92761 10.9813 8.10812 10.8008C8.28863 10.6202 8.58739 10.6202 8.7679 10.8008L10.7535 12.7863L12.739 10.8008C12.9195 10.6202 13.2183 10.6202 13.3988 10.8008C13.5793 10.9813 13.5793 11.28 13.3988 11.4605L11.0833 13.776C10.9962 13.8631 10.8717 13.9129 10.7535 13.9129Z" fill="#292D32"/>
<path id="Vector_4" d="M10.7473 13.9129C10.4921 13.9129 10.2804 13.7013 10.2804 13.4461V2.24231C10.2804 1.98711 10.4921 1.77548 10.7473 1.77548C11.0024 1.77548 11.2141 1.98711 11.2141 2.24231V13.4461C11.2141 13.7013 11.0087 13.9129 10.7473 13.9129Z" fill="#292D32"/>
</g>
</g>
</svg>
