<svg width="16" height="16" viewBox="0 0 16 16" fill="none" xmlns="http://www.w3.org/2000/svg">
<g id="vuesax/bold/ticket-2">
<g id="ticket-2">
<path id="Vector" d="M11.4104 3.26651C11.4104 3.27276 11.4104 3.27276 11.4104 3.27901C11.2542 3.27276 11.0979 3.26651 10.9292 3.26651H6.1167L6.78545 2.60401C7.39795 1.98526 8.07295 1.41651 8.8542 1.41651C9.6417 1.41651 10.3167 1.98526 10.9292 2.60401L11.2792 2.95401C11.3667 3.03526 11.4104 3.14776 11.4104 3.26651Z" fill="#8A74F9"/>
<path id="Vector_2" d="M13.6917 8.39776C13.9354 8.39776 14.1292 8.19776 14.1292 7.94776V7.39776C14.1292 4.94151 13.3792 4.19776 10.9292 4.19776H6.99166H5.40416C2.95416 4.19776 2.20416 4.94776 2.20416 7.39776V7.66651C2.20416 7.91651 2.39791 8.11026 2.64166 8.11026C3.16666 8.11026 3.58541 8.53526 3.58541 9.05401C3.58541 9.57276 3.16666 10.004 2.64166 10.004C2.39791 10.004 2.20416 10.1978 2.20416 10.4478V10.7165C2.20416 13.1728 2.95416 13.9165 5.40416 13.9165H6.98541H10.9229C13.3729 13.9165 14.1229 13.1665 14.1229 10.7165C14.1229 10.4728 13.9292 10.2728 13.6854 10.2728C13.1604 10.2728 12.7417 9.85401 12.7417 9.33526C12.7479 8.81651 13.1667 8.39776 13.6917 8.39776ZM7.42916 11.954C7.42916 12.1978 7.22916 12.3978 6.98541 12.3978C6.74166 12.3978 6.54166 12.1978 6.54166 11.954V10.279C6.54166 10.0353 6.74166 9.83526 6.98541 9.83526C7.22916 9.83526 7.42916 10.0353 7.42916 10.279V11.954ZM7.42916 7.83526C7.42916 8.07901 7.22916 8.27901 6.98541 8.27901C6.74166 8.27901 6.54166 8.07901 6.54166 7.83526V6.16026C6.54166 5.91651 6.74166 5.71651 6.98541 5.71651C7.22916 5.71651 7.42916 5.91651 7.42916 6.16026V7.83526Z" fill="#8A74F9"/>
</g>
</g>
</svg>
